<?xml version="1.0" encoding="UTF-8"?>
<svg width="1550px" height="469px" viewBox="0 0 1550 469" version="1.1" xmlns="http://www.w3.org/2000/svg" xmlns:xlink="http://www.w3.org/1999/xlink">
    <!-- Generator: Sketch 51.2 (57519) - http://www.bohemiancoding.com/sketch -->
    <title>Artboard 3</title>
    <desc>Created with Sketch.</desc>
    <defs></defs>
    <g id="Artboard-3" stroke="none" stroke-width="1" fill="none" fill-rule="evenodd">
        <rect id="Background" fill="#F2F2F2" x="0" y="0" width="1550" height="469"></rect>
        <text id="50E3C2" font-family="Heebo-Light, Heebo" font-size="20" font-weight="300" fill="#979797">
            <tspan x="1370.12988" y="381">50E3C2</tspan>
        </text>
        <text id="Light" font-family="Heebo-Light, Heebo" font-size="20" font-weight="300" fill="#979797">
            <tspan x="117.217773" y="380">Light</tspan>
        </text>
        <text id="Dark" font-family="Heebo-Light, Heebo" font-size="20" font-weight="300" fill="#979797">
            <tspan x="119.314453" y="222">Dark</tspan>
        </text>
        <rect id="Green" fill="#50E3C2" x="1340" y="81" width="129" height="269"></rect>
        <text id="E5E5E5" font-family="Heebo-Light, Heebo" font-size="20" font-weight="300" fill="#979797">
            <tspan x="1226.29395" y="381">E5E5E5</tspan>
        </text>
        <rect id="Light-Grey" fill="#E5E5E5" x="1195" y="81" width="129" height="269"></rect>
        <text id="979797" font-family="Heebo-Light, Heebo" font-size="20" font-weight="300" fill="#979797">
            <tspan x="1082.21875" y="381">979797</tspan>
        </text>
        <rect id="Medium-Grey" fill="#979797" x="1050" y="81" width="129" height="269"></rect>
        <text id="4A4A4A" font-family="Heebo-Light, Heebo" font-size="20" font-weight="300" fill="#979797">
            <tspan x="934.109375" y="381">4A4A4A</tspan>
        </text>
        <rect id="Dark-Grey" fill="#4A4A4A" x="905" y="81" width="129" height="269"></rect>
        <text id="1:1" font-family="Heebo-Light, Heebo" font-size="20" font-weight="300" fill="#979797">
            <tspan x="798.306641" y="342">1:1</tspan>
        </text>
        <text id="Launch-1:1" font-family="Heebo-Black, Heebo" font-size="36" font-weight="700" fill="#50E3C2">
            <tspan x="658" y="349">Launch</tspan>
            <tspan x="776.40625" y="349" font-family="Roboto-Medium, Roboto" font-weight="400">.</tspan>
        </text>
        <path d="M665.231156,322.247612 L659.249246,322.247612 L659.249246,329.725487 L665.231156,329.725487 L665.231156,322.247612 Z M665.480402,322.247612 L665.480402,329.725487 L677.244824,329.725487 L677.244824,322.319832 L677.244824,322.247612 L665.480402,322.247612 Z M665.231156,348.752388 L665.231156,348.690485 L665.231156,329.973099 L659.249246,329.973099 L659.249246,348.752388 L665.231156,348.752388 Z M665.480402,348.752388 L677.244824,348.752388 L677.244824,348.690485 L677.244824,329.973099 L665.480402,329.973099 L665.480402,348.690485 L665.480402,348.752388 Z M659,322.247612 L659,322 L659.124623,322 L782.875377,322 L783,322 L783,322.196026 L783,322.319832 L783,348.690485 L783,348.814291 L783,349 L782.875377,349 L659.124623,349 L659,349 L659,348.752388 L659,322.247612 Z M756.579899,329.725487 L762.561809,329.725487 L762.561809,322.319832 L762.561809,322.247612 L756.579899,322.247612 L756.579899,322.319832 L756.579899,329.725487 Z M756.579899,329.973099 L756.579899,348.690485 L756.579899,348.752388 L762.561809,348.752388 L762.561809,348.690485 L762.561809,329.973099 L756.579899,329.973099 Z M756.330653,329.725487 L756.330653,322.319832 L756.330653,322.247612 L754.58593,322.247612 L754.58593,322.319832 L754.58593,329.725487 L756.330653,329.725487 Z M756.330653,329.973099 L754.58593,329.973099 L754.58593,348.690485 L754.58593,348.752388 L756.330653,348.752388 L756.330653,348.690485 L756.330653,329.973099 Z M754.336683,329.725487 L754.336683,322.319832 L754.336683,322.247612 L748.354774,322.247612 L748.354774,322.319832 L748.354774,329.725487 L754.336683,329.725487 Z M754.336683,329.973099 L748.354774,329.973099 L748.354774,348.690485 L748.354774,348.752388 L754.336683,348.752388 L754.336683,348.690485 L754.336683,329.973099 Z M748.105528,329.725487 L748.105528,322.319832 L748.105528,322.247612 L743.369849,322.247612 L743.369849,322.319832 L743.369849,329.725487 L748.105528,329.725487 Z M748.105528,329.973099 L743.369849,329.973099 L743.369849,348.690485 L743.369849,348.752388 L748.105528,348.752388 L748.105528,348.690485 L748.105528,329.973099 Z M743.120603,329.725487 L743.120603,322.319832 L743.120603,322.247612 L737.138693,322.247612 L737.138693,322.319832 L737.138693,329.725487 L743.120603,329.725487 Z M743.120603,329.973099 L737.138693,329.973099 L737.138693,348.690485 L737.138693,348.752388 L743.120603,348.752388 L743.120603,348.690485 L743.120603,329.973099 Z M736.889447,329.725487 L736.889447,322.319832 L736.889447,322.247612 L734.895477,322.247612 L734.895477,322.319832 L734.895477,329.725487 L736.889447,329.725487 Z M736.889447,329.973099 L734.895477,329.973099 L734.895477,348.690485 L734.895477,348.752388 L736.889447,348.752388 L736.889447,348.690485 L736.889447,329.973099 Z M734.646231,329.725487 L734.646231,322.319832 L734.646231,322.247612 L728.664322,322.247612 L728.664322,322.319832 L728.664322,329.725487 L734.646231,329.725487 Z M734.646231,329.973099 L728.664322,329.973099 L728.664322,348.690485 L728.664322,348.752388 L734.646231,348.752388 L734.646231,348.690485 L734.646231,329.973099 Z M728.415075,329.725487 L728.415075,322.319832 L728.415075,322.247612 L723.679397,322.247612 L723.679397,322.319832 L723.679397,329.725487 L728.415075,329.725487 Z M728.415075,329.973099 L723.679397,329.973099 L723.679397,348.690485 L723.679397,348.752388 L728.415075,348.752388 L728.415075,348.690485 L728.415075,329.973099 Z M723.430151,329.725487 L723.430151,322.319832 L723.430151,322.247612 L717.448241,322.247612 L717.448241,322.319832 L717.448241,329.725487 L723.430151,329.725487 Z M723.430151,329.973099 L717.448241,329.973099 L717.448241,348.690485 L717.448241,348.752388 L723.430151,348.752388 L723.430151,348.690485 L723.430151,329.973099 Z M717.198995,329.725487 L717.198995,322.319832 L717.198995,322.247612 L714.706533,322.247612 L714.706533,322.319832 L714.706533,329.725487 L717.198995,329.725487 Z M717.198995,329.973099 L714.706533,329.973099 L714.706533,348.690485 L714.706533,348.752388 L717.198995,348.752388 L717.198995,348.690485 L717.198995,329.973099 Z M714.457286,329.725487 L714.457286,322.319832 L714.457286,322.247612 L708.475377,322.247612 L708.475377,322.319832 L708.475377,329.725487 L714.457286,329.725487 Z M714.457286,329.973099 L708.475377,329.973099 L708.475377,348.690485 L708.475377,348.752388 L714.457286,348.752388 L714.457286,348.690485 L714.457286,329.973099 Z M708.226131,329.725487 L708.226131,322.319832 L708.226131,322.247612 L703.415678,322.247612 L703.415678,322.319832 L703.415678,329.725487 L708.226131,329.725487 Z M708.226131,329.973099 L703.415678,329.973099 L703.415678,348.690485 L703.415678,348.752388 L708.226131,348.752388 L708.226131,348.690485 L708.226131,329.973099 Z M703.166432,329.725487 L703.166432,322.319832 L703.166432,322.247612 L697.184523,322.247612 L697.184523,322.319832 L697.184523,329.725487 L703.166432,329.725487 Z M703.166432,329.973099 L697.184523,329.973099 L697.184523,348.690485 L697.184523,348.752388 L703.166432,348.752388 L703.166432,348.690485 L703.166432,329.973099 Z M696.935276,329.725487 L696.935276,322.319832 L696.935276,322.247612 L694.193568,322.247612 L694.193568,322.319832 L694.193568,329.725487 L696.935276,329.725487 Z M696.935276,329.973099 L694.193568,329.973099 L694.193568,348.690485 L694.193568,348.752388 L696.935276,348.752388 L696.935276,348.690485 L696.935276,329.973099 Z M693.944322,329.725487 L693.944322,322.319832 L693.944322,322.247612 L687.962412,322.247612 L687.962412,322.319832 L687.962412,329.725487 L693.944322,329.725487 Z M693.944322,329.973099 L687.962412,329.973099 L687.962412,348.690485 L687.962412,348.752388 L693.944322,348.752388 L693.944322,348.690485 L693.944322,329.973099 Z M687.713166,329.725487 L687.713166,322.319832 L687.713166,322.247612 L683.725226,322.247612 L683.725226,322.319832 L683.725226,329.725487 L687.713166,329.725487 Z M687.713166,329.973099 L683.725226,329.973099 L683.725226,348.690485 L683.725226,348.752388 L687.713166,348.752388 L687.713166,348.690485 L687.713166,329.973099 Z M683.47598,329.725487 L683.47598,322.319832 L683.47598,322.247612 L677.49407,322.247612 L677.49407,322.319832 L677.49407,329.725487 L683.47598,329.725487 Z M683.47598,329.973099 L677.49407,329.973099 L677.49407,348.690485 L677.49407,348.752388 L683.47598,348.752388 L683.47598,348.690485 L683.47598,329.973099 Z M782.750754,329.725487 L782.750754,322.319832 L782.750754,322.247612 L776.768844,322.247612 L776.768844,322.319832 L776.768844,329.725487 L782.750754,329.725487 Z M782.750754,329.973099 L776.768844,329.973099 L776.768844,348.690485 L776.768844,348.752388 L782.750754,348.752388 L782.750754,348.690485 L782.750754,329.973099 Z M776.519598,329.725487 L776.519598,322.319832 L776.519598,322.247612 L773.777889,322.247612 L773.777889,322.319832 L773.777889,329.725487 L776.519598,329.725487 Z M776.519598,329.973099 L773.777889,329.973099 L773.777889,348.690485 L773.777889,348.752388 L776.519598,348.752388 L776.519598,348.690485 L776.519598,329.973099 Z M773.528643,329.725487 L773.528643,322.319832 L773.528643,322.247612 L767.546734,322.247612 L767.546734,322.319832 L767.546734,329.725487 L773.528643,329.725487 Z M773.528643,329.973099 L767.546734,329.973099 L767.546734,348.690485 L767.546734,348.752388 L773.528643,348.752388 L773.528643,348.690485 L773.528643,329.973099 Z M767.297487,329.725487 L767.297487,322.319832 L767.297487,322.247612 L762.811055,322.247612 L762.811055,322.319832 L762.811055,329.725487 L767.297487,329.725487 Z M767.297487,329.973099 L762.811055,329.973099 L762.811055,348.690485 L762.811055,348.752388 L767.297487,348.752388 L767.297487,348.690485 L767.297487,329.973099 Z" id="Combined-Shape" fill="#979797" fill-rule="nonzero"></path>
        <text id="2:1" font-family="Heebo-Light, Heebo" font-size="20" font-weight="300" fill="#979797">
            <tspan x="798.306641" y="267">2:1</tspan>
        </text>
        <text id="Launch-2:1" font-family="Heebo-Black, Heebo" font-size="72" font-weight="700" fill="#50E3C2">
            <tspan x="531" y="287">Launch</tspan>
            <tspan x="767.8125" y="287" font-family="Roboto-Medium, Roboto" font-weight="400">.</tspan>
        </text>
        <path d="M546.512563,233.504394 L534.500503,233.504394 L534.500503,248.737104 L546.512563,248.737104 L546.512563,233.504394 Z M547.013065,233.504394 L547.013065,248.737104 L570.636784,248.737104 L570.636784,233.651509 L570.636784,233.504394 L547.013065,233.504394 Z M546.512563,287.495606 L546.512563,287.369507 L546.512563,249.241498 L534.500503,249.241498 L534.500503,287.495606 L546.512563,287.495606 Z M547.013065,287.495606 L570.636784,287.495606 L570.636784,287.369507 L570.636784,249.241498 L547.013065,249.241498 L547.013065,287.369507 L547.013065,287.495606 Z M534,233.504394 L534,233 L534.250251,233 L782.749749,233 L783,233 L783,233.399312 L783,233.651509 L783,287.369507 L783,287.621704 L783,288 L782.749749,288 L534.250251,288 L534,288 L534,287.495606 L534,233.504394 Z M729.946734,248.737104 L741.958794,248.737104 L741.958794,233.651509 L741.958794,233.504394 L729.946734,233.504394 L729.946734,233.651509 L729.946734,248.737104 Z M729.946734,249.241498 L729.946734,287.369507 L729.946734,287.495606 L741.958794,287.495606 L741.958794,287.369507 L741.958794,249.241498 L729.946734,249.241498 Z M729.446231,248.737104 L729.446231,233.651509 L729.446231,233.504394 L725.942714,233.504394 L725.942714,233.651509 L725.942714,248.737104 L729.446231,248.737104 Z M729.446231,249.241498 L725.942714,249.241498 L725.942714,287.369507 L725.942714,287.495606 L729.446231,287.495606 L729.446231,287.369507 L729.446231,249.241498 Z M725.442211,248.737104 L725.442211,233.651509 L725.442211,233.504394 L713.430151,233.504394 L713.430151,233.651509 L713.430151,248.737104 L725.442211,248.737104 Z M725.442211,249.241498 L713.430151,249.241498 L713.430151,287.369507 L713.430151,287.495606 L725.442211,287.495606 L725.442211,287.369507 L725.442211,249.241498 Z M712.929648,248.737104 L712.929648,233.651509 L712.929648,233.504394 L703.420101,233.504394 L703.420101,233.651509 L703.420101,248.737104 L712.929648,248.737104 Z M712.929648,249.241498 L703.420101,249.241498 L703.420101,287.369507 L703.420101,287.495606 L712.929648,287.495606 L712.929648,287.369507 L712.929648,249.241498 Z M702.919598,248.737104 L702.919598,233.651509 L702.919598,233.504394 L690.907538,233.504394 L690.907538,233.651509 L690.907538,248.737104 L702.919598,248.737104 Z M702.919598,249.241498 L690.907538,249.241498 L690.907538,287.369507 L690.907538,287.495606 L702.919598,287.495606 L702.919598,287.369507 L702.919598,249.241498 Z M690.407035,248.737104 L690.407035,233.651509 L690.407035,233.504394 L686.403015,233.504394 L686.403015,233.651509 L686.403015,248.737104 L690.407035,248.737104 Z M690.407035,249.241498 L686.403015,249.241498 L686.403015,287.369507 L686.403015,287.495606 L690.407035,287.495606 L690.407035,287.369507 L690.407035,249.241498 Z M685.902513,248.737104 L685.902513,233.651509 L685.902513,233.504394 L673.890452,233.504394 L673.890452,233.651509 L673.890452,248.737104 L685.902513,248.737104 Z M685.902513,249.241498 L673.890452,249.241498 L673.890452,287.369507 L673.890452,287.495606 L685.902513,287.495606 L685.902513,287.369507 L685.902513,249.241498 Z M673.38995,248.737104 L673.38995,233.651509 L673.38995,233.504394 L663.880402,233.504394 L663.880402,233.651509 L663.880402,248.737104 L673.38995,248.737104 Z M673.38995,249.241498 L663.880402,249.241498 L663.880402,287.369507 L663.880402,287.495606 L673.38995,287.495606 L673.38995,287.369507 L673.38995,249.241498 Z M663.379899,248.737104 L663.379899,233.651509 L663.379899,233.504394 L651.367839,233.504394 L651.367839,233.651509 L651.367839,248.737104 L663.379899,248.737104 Z M663.379899,249.241498 L651.367839,249.241498 L651.367839,287.369507 L651.367839,287.495606 L663.379899,287.495606 L663.379899,287.369507 L663.379899,249.241498 Z M650.867337,248.737104 L650.867337,233.651509 L650.867337,233.504394 L645.862312,233.504394 L645.862312,233.651509 L645.862312,248.737104 L650.867337,248.737104 Z M650.867337,249.241498 L645.862312,249.241498 L645.862312,287.369507 L645.862312,287.495606 L650.867337,287.495606 L650.867337,287.369507 L650.867337,249.241498 Z M645.361809,248.737104 L645.361809,233.651509 L645.361809,233.504394 L633.349749,233.504394 L633.349749,233.651509 L633.349749,248.737104 L645.361809,248.737104 Z M645.361809,249.241498 L633.349749,249.241498 L633.349749,287.369507 L633.349749,287.495606 L645.361809,287.495606 L645.361809,287.369507 L645.361809,249.241498 Z M632.849246,248.737104 L632.849246,233.651509 L632.849246,233.504394 L623.189548,233.504394 L623.189548,233.651509 L623.189548,248.737104 L632.849246,248.737104 Z M632.849246,249.241498 L623.189548,249.241498 L623.189548,287.369507 L623.189548,287.495606 L632.849246,287.495606 L632.849246,287.369507 L632.849246,249.241498 Z M622.689045,248.737104 L622.689045,233.651509 L622.689045,233.504394 L610.676985,233.504394 L610.676985,233.651509 L610.676985,248.737104 L622.689045,248.737104 Z M622.689045,249.241498 L610.676985,249.241498 L610.676985,287.369507 L610.676985,287.495606 L622.689045,287.495606 L622.689045,287.369507 L622.689045,249.241498 Z M610.176482,248.737104 L610.176482,233.651509 L610.176482,233.504394 L604.670955,233.504394 L604.670955,233.651509 L604.670955,248.737104 L610.176482,248.737104 Z M610.176482,249.241498 L604.670955,249.241498 L604.670955,287.369507 L604.670955,287.495606 L610.176482,287.495606 L610.176482,287.369507 L610.176482,249.241498 Z M604.170452,248.737104 L604.170452,233.651509 L604.170452,233.504394 L592.158392,233.504394 L592.158392,233.651509 L592.158392,248.737104 L604.170452,248.737104 Z M604.170452,249.241498 L592.158392,249.241498 L592.158392,287.369507 L592.158392,287.495606 L604.170452,287.495606 L604.170452,287.369507 L604.170452,249.241498 Z M591.657889,248.737104 L591.657889,233.651509 L591.657889,233.504394 L583.649849,233.504394 L583.649849,233.651509 L583.649849,248.737104 L591.657889,248.737104 Z M591.657889,249.241498 L583.649849,249.241498 L583.649849,287.369507 L583.649849,287.495606 L591.657889,287.495606 L591.657889,287.369507 L591.657889,249.241498 Z M583.149347,248.737104 L583.149347,233.651509 L583.149347,233.504394 L571.137286,233.504394 L571.137286,233.651509 L571.137286,248.737104 L583.149347,248.737104 Z M583.149347,249.241498 L571.137286,249.241498 L571.137286,287.369507 L571.137286,287.495606 L583.149347,287.495606 L583.149347,287.369507 L583.149347,249.241498 Z M782.499497,248.737104 L782.499497,233.651509 L782.499497,233.504394 L770.487437,233.504394 L770.487437,233.651509 L770.487437,248.737104 L782.499497,248.737104 Z M782.499497,249.241498 L770.487437,249.241498 L770.487437,287.369507 L770.487437,287.495606 L782.499497,287.495606 L782.499497,287.369507 L782.499497,249.241498 Z M769.986935,248.737104 L769.986935,233.651509 L769.986935,233.504394 L764.481407,233.504394 L764.481407,233.651509 L764.481407,248.737104 L769.986935,248.737104 Z M769.986935,249.241498 L764.481407,249.241498 L764.481407,287.369507 L764.481407,287.495606 L769.986935,287.495606 L769.986935,287.369507 L769.986935,249.241498 Z M763.980905,248.737104 L763.980905,233.651509 L763.980905,233.504394 L751.968844,233.504394 L751.968844,233.651509 L751.968844,248.737104 L763.980905,248.737104 Z M763.980905,249.241498 L751.968844,249.241498 L751.968844,287.369507 L751.968844,287.495606 L763.980905,287.495606 L763.980905,287.369507 L763.980905,249.241498 Z M751.468342,248.737104 L751.468342,233.651509 L751.468342,233.504394 L742.459296,233.504394 L742.459296,233.651509 L742.459296,248.737104 L751.468342,248.737104 Z M751.468342,249.241498 L742.459296,249.241498 L742.459296,287.369507 L742.459296,287.495606 L751.468342,287.495606 L751.468342,287.369507 L751.468342,249.241498 Z" id="Combined-Shape" fill="#979797" fill-rule="nonzero"></path>
        <text id="4:1" font-family="Heebo-Light, Heebo" font-size="20" font-weight="300" fill="#979797">
            <tspan x="798.306641" y="141">4:1</tspan>
        </text>
        <text id="Launch-4:1" font-family="Heebo-Black, Heebo" font-size="144" font-weight="700" fill="#50E3C2">
            <tspan x="279" y="188">Launch</tspan>
            <tspan x="752.625" y="188" font-family="Roboto-Medium, Roboto" font-weight="400">.</tspan>
        </text>
        <path d="M311.025126,80.9996179 L287.001005,80.9996179 L287.001005,111.188078 L311.025126,111.188078 L311.025126,80.9996179 Z M312.026131,80.9996179 L312.026131,111.188078 L359.273568,111.188078 L359.273568,81.2911731 L359.273568,80.9996179 L312.026131,80.9996179 Z M311.025126,188.000382 L311.025126,187.750478 L311.025126,112.187696 L287.001005,112.187696 L287.001005,188.000382 L311.025126,188.000382 Z M312.026131,188.000382 L359.273568,188.000382 L359.273568,187.750478 L359.273568,112.187696 L312.026131,112.187696 L312.026131,187.750478 L312.026131,188.000382 Z M286,80.9996179 L286,80 L286.500503,80 L783.499497,80 L784,80 L784,80.7913642 L784,81.2911731 L784,187.750478 L784,188.250287 L784,189 L783.499497,189 L286.500503,189 L286,189 L286,188.000382 L286,80.9996179 Z M677.893467,111.188078 L701.917588,111.188078 L701.917588,81.2911731 L701.917588,80.9996179 L677.893467,80.9996179 L677.893467,81.2911731 L677.893467,111.188078 Z M677.893467,112.187696 L677.893467,187.750478 L677.893467,188.000382 L701.917588,188.000382 L701.917588,187.750478 L701.917588,112.187696 L677.893467,112.187696 Z M676.892462,111.188078 L676.892462,81.2911731 L676.892462,80.9996179 L669.885427,80.9996179 L669.885427,81.2911731 L669.885427,111.188078 L676.892462,111.188078 Z M676.892462,112.187696 L669.885427,112.187696 L669.885427,187.750478 L669.885427,188.000382 L676.892462,188.000382 L676.892462,187.750478 L676.892462,112.187696 Z M668.884422,111.188078 L668.884422,81.2911731 L668.884422,80.9996179 L644.860302,80.9996179 L644.860302,81.2911731 L644.860302,111.188078 L668.884422,111.188078 Z M668.884422,112.187696 L644.860302,112.187696 L644.860302,187.750478 L644.860302,188.000382 L668.884422,188.000382 L668.884422,187.750478 L668.884422,112.187696 Z M643.859296,111.188078 L643.859296,81.2911731 L643.859296,80.9996179 L624.840201,80.9996179 L624.840201,81.2911731 L624.840201,111.188078 L643.859296,111.188078 Z M643.859296,112.187696 L624.840201,112.187696 L624.840201,187.750478 L624.840201,188.000382 L643.859296,188.000382 L643.859296,187.750478 L643.859296,112.187696 Z M623.839196,111.188078 L623.839196,81.2911731 L623.839196,80.9996179 L599.815075,80.9996179 L599.815075,81.2911731 L599.815075,111.188078 L623.839196,111.188078 Z M623.839196,112.187696 L599.815075,112.187696 L599.815075,187.750478 L599.815075,188.000382 L623.839196,188.000382 L623.839196,187.750478 L623.839196,112.187696 Z M598.81407,111.188078 L598.81407,81.2911731 L598.81407,80.9996179 L590.80603,80.9996179 L590.80603,81.2911731 L590.80603,111.188078 L598.81407,111.188078 Z M598.81407,112.187696 L590.80603,112.187696 L590.80603,187.750478 L590.80603,188.000382 L598.81407,188.000382 L598.81407,187.750478 L598.81407,112.187696 Z M589.805025,111.188078 L589.805025,81.2911731 L589.805025,80.9996179 L565.780905,80.9996179 L565.780905,81.2911731 L565.780905,111.188078 L589.805025,111.188078 Z M589.805025,112.187696 L565.780905,112.187696 L565.780905,187.750478 L565.780905,188.000382 L589.805025,188.000382 L589.805025,187.750478 L589.805025,112.187696 Z M564.779899,111.188078 L564.779899,81.2911731 L564.779899,80.9996179 L545.760804,80.9996179 L545.760804,81.2911731 L545.760804,111.188078 L564.779899,111.188078 Z M564.779899,112.187696 L545.760804,112.187696 L545.760804,187.750478 L545.760804,188.000382 L564.779899,188.000382 L564.779899,187.750478 L564.779899,112.187696 Z M544.759799,111.188078 L544.759799,81.2911731 L544.759799,80.9996179 L520.735678,80.9996179 L520.735678,81.2911731 L520.735678,111.188078 L544.759799,111.188078 Z M544.759799,112.187696 L520.735678,112.187696 L520.735678,187.750478 L520.735678,188.000382 L544.759799,188.000382 L544.759799,187.750478 L544.759799,112.187696 Z M519.734673,111.188078 L519.734673,81.2911731 L519.734673,80.9996179 L509.724623,80.9996179 L509.724623,81.2911731 L509.724623,111.188078 L519.734673,111.188078 Z M519.734673,112.187696 L509.724623,112.187696 L509.724623,187.750478 L509.724623,188.000382 L519.734673,188.000382 L519.734673,187.750478 L519.734673,112.187696 Z M508.723618,111.188078 L508.723618,81.2911731 L508.723618,80.9996179 L484.699497,80.9996179 L484.699497,81.2911731 L484.699497,111.188078 L508.723618,111.188078 Z M508.723618,112.187696 L484.699497,112.187696 L484.699497,187.750478 L484.699497,188.000382 L508.723618,188.000382 L508.723618,187.750478 L508.723618,112.187696 Z M483.698492,111.188078 L483.698492,81.2911731 L483.698492,80.9996179 L464.379095,80.9996179 L464.379095,81.2911731 L464.379095,111.188078 L483.698492,111.188078 Z M483.698492,112.187696 L464.379095,112.187696 L464.379095,187.750478 L464.379095,188.000382 L483.698492,188.000382 L483.698492,187.750478 L483.698492,112.187696 Z M463.37809,111.188078 L463.37809,81.2911731 L463.37809,80.9996179 L439.35397,80.9996179 L439.35397,81.2911731 L439.35397,111.188078 L463.37809,111.188078 Z M463.37809,112.187696 L439.35397,112.187696 L439.35397,187.750478 L439.35397,188.000382 L463.37809,188.000382 L463.37809,187.750478 L463.37809,112.187696 Z M438.352965,111.188078 L438.352965,81.2911731 L438.352965,80.9996179 L427.34191,80.9996179 L427.34191,81.2911731 L427.34191,111.188078 L438.352965,111.188078 Z M438.352965,112.187696 L427.34191,112.187696 L427.34191,187.750478 L427.34191,188.000382 L438.352965,188.000382 L438.352965,187.750478 L438.352965,112.187696 Z M426.340905,111.188078 L426.340905,81.2911731 L426.340905,80.9996179 L402.316784,80.9996179 L402.316784,81.2911731 L402.316784,111.188078 L426.340905,111.188078 Z M426.340905,112.187696 L402.316784,112.187696 L402.316784,187.750478 L402.316784,188.000382 L426.340905,188.000382 L426.340905,187.750478 L426.340905,112.187696 Z M401.315779,111.188078 L401.315779,81.2911731 L401.315779,80.9996179 L385.299698,80.9996179 L385.299698,81.2911731 L385.299698,111.188078 L401.315779,111.188078 Z M401.315779,112.187696 L385.299698,112.187696 L385.299698,187.750478 L385.299698,188.000382 L401.315779,188.000382 L401.315779,187.750478 L401.315779,112.187696 Z M384.298693,111.188078 L384.298693,81.2911731 L384.298693,80.9996179 L360.274573,80.9996179 L360.274573,81.2911731 L360.274573,111.188078 L384.298693,111.188078 Z M384.298693,112.187696 L360.274573,112.187696 L360.274573,187.750478 L360.274573,188.000382 L384.298693,188.000382 L384.298693,187.750478 L384.298693,112.187696 Z M782.998995,111.188078 L782.998995,81.2911731 L782.998995,80.9996179 L758.974874,80.9996179 L758.974874,81.2911731 L758.974874,111.188078 L782.998995,111.188078 Z M782.998995,112.187696 L758.974874,112.187696 L758.974874,187.750478 L758.974874,188.000382 L782.998995,188.000382 L782.998995,187.750478 L782.998995,112.187696 Z M757.973869,111.188078 L757.973869,81.2911731 L757.973869,80.9996179 L746.962814,80.9996179 L746.962814,81.2911731 L746.962814,111.188078 L757.973869,111.188078 Z M757.973869,112.187696 L746.962814,112.187696 L746.962814,187.750478 L746.962814,188.000382 L757.973869,188.000382 L757.973869,187.750478 L757.973869,112.187696 Z M745.961809,111.188078 L745.961809,81.2911731 L745.961809,80.9996179 L721.937688,80.9996179 L721.937688,81.2911731 L721.937688,111.188078 L745.961809,111.188078 Z M745.961809,112.187696 L721.937688,112.187696 L721.937688,187.750478 L721.937688,188.000382 L745.961809,188.000382 L745.961809,187.750478 L745.961809,112.187696 Z M720.936683,111.188078 L720.936683,81.2911731 L720.936683,80.9996179 L702.918593,80.9996179 L702.918593,81.2911731 L702.918593,111.188078 L720.936683,111.188078 Z M720.936683,112.187696 L702.918593,112.187696 L702.918593,187.750478 L702.918593,188.000382 L720.936683,188.000382 L720.936683,187.750478 L720.936683,112.187696 Z" id="Combined-Shape" fill="#979797" fill-rule="nonzero"></path>
        <g id="App-Icon" transform="translate(79.000000, 234.000000)">
            <rect id="Rectangle-8" fill="#50E3C2" x="0" y="0" width="120" height="120" rx="16"></rect>
            <path d="M59,103 L55.7755085,103 C55.7596968,103 54.657952,102.368389 53.1153761,97.7562494 L40,97.7562494 C40,90.4493954 43.6219188,80.8840989 50.8657565,69.0603599 C48.2469945,41.6925001 55.7661081,21.0661923 59,21 C62.2338919,21.0661923 69.7530055,41.6925001 67.1342435,69.0603599 C74.3780812,80.8840989 78,90.4493954 78,97.7562494 L64.8846239,97.7562494 C63.342048,102.368389 62.2403032,103 62.2244915,103 L59,103 Z" id="Combined-Shape" fill="#4A4A4A"></path>
        </g>
        <g id="App-Icon" transform="translate(79.000000, 80.000000)">
            <rect id="Rectangle-8" fill="#4A4A4A" x="0" y="0" width="120" height="120" rx="16"></rect>
            <path d="M59.4957983,102.857143 L56.2442103,102.857143 C56.2282657,102.857143 55.1172625,102.227992 53.5617238,97.6338127 L40.3361345,97.6338127 C40.3361345,90.3554133 43.9884896,80.8273664 51.2931998,69.0496719 C48.6524314,41.7883891 56.2347309,21.2424052 59.4957983,21.1764706 C62.7568658,21.2424052 70.3391652,41.7883891 67.6983968,69.0496719 C75.0031071,80.8273664 78.6554622,90.3554133 78.6554622,97.6338127 L65.4298728,97.6338127 C63.8743342,102.227992 62.7633309,102.857143 62.7473864,102.857143 L59.4957983,102.857143 Z" id="Combined-Shape" fill="#50E3C2"></path>
        </g>
    </g>
</svg>